<svg width="20" height="20" viewBox="0 0 20 20" fill="none" xmlns="http://www.w3.org/2000/svg">
<path d="M16.6667 15.8333V13.3333H5.83334C4.45263 13.3333 3.33334 14.4526 3.33334 15.8333M7.33334 18.3333H14C14.9334 18.3333 15.4001 18.3333 15.7567 18.1517C16.0703 17.9919 16.3252 17.7369 16.485 17.4233C16.6667 17.0668 16.6667 16.6001 16.6667 15.6667V4.33332C16.6667 3.3999 16.6667 2.93319 16.485 2.57667C16.3252 2.26307 16.0703 2.0081 15.7567 1.84831C15.4001 1.66666 14.9334 1.66666 14 1.66666H7.33334C5.93321 1.66666 5.23315 1.66666 4.69837 1.93914C4.22796 2.17882 3.84551 2.56128 3.60583 3.03168C3.33334 3.56646 3.33334 4.26653 3.33334 5.66666V14.3333C3.33334 15.7335 3.33334 16.4335 3.60583 16.9683C3.84551 17.4387 4.22796 17.8212 4.69837 18.0608C5.23315 18.3333 5.93321 18.3333 7.33334 18.3333Z" stroke="#61656C" stroke-width="1.67" stroke-linecap="round" stroke-linejoin="round"/>
</svg>
