<svg width="20" height="20" viewBox="0 0 20 20" fill="none" xmlns="http://www.w3.org/2000/svg">
<path d="M4.16666 8.33331V13.3426C4.16666 13.6417 4.16666 13.7913 4.2122 13.9233C4.25248 14.0401 4.31821 14.1465 4.40464 14.2347C4.50238 14.3345 4.63616 14.4014 4.90371 14.5352L9.40371 16.7852C9.62234 16.8945 9.73166 16.9491 9.84633 16.9707C9.94788 16.9897 10.0521 16.9897 10.1537 16.9707C10.2683 16.9491 10.3776 16.8945 10.5963 16.7852L15.0963 14.5352C15.3638 14.4014 15.4976 14.3345 15.5953 14.2347C15.6818 14.1465 15.7475 14.0401 15.7878 13.9233C15.8333 13.7913 15.8333 13.6417 15.8333 13.3426V8.33331M1.66666 7.08331L9.70185 3.06571C9.81117 3.01105 9.86583 2.98372 9.92316 2.97297C9.97394 2.96344 10.026 2.96344 10.0768 2.97297C10.1342 2.98372 10.1888 3.01105 10.2981 3.06571L18.3333 7.08331L10.2981 11.1009C10.1888 11.1556 10.1342 11.1829 10.0768 11.1936C10.026 11.2032 9.97394 11.2032 9.92316 11.1936C9.86583 11.1829 9.81117 11.1556 9.70185 11.1009L1.66666 7.08331Z" stroke="white" stroke-width="1.336" stroke-linecap="round" stroke-linejoin="round"/>
</svg>
