<svg width="59" height="46" viewBox="0 0 59 46" fill="none" xmlns="http://www.w3.org/2000/svg">
<path d="M8.46934 42.1088C8.31199 42.9222 8.84378 43.7091 9.65713 43.8664C10.4705 44.0238 11.2574 43.492 11.4147 42.6786L9.94204 42.3937L8.46934 42.1088ZM49.8329 3.45148C50.6538 3.34051 51.2294 2.58502 51.1184 1.76406C51.0074 0.943102 50.2519 0.367545 49.431 0.478521L49.6319 1.965L49.8329 3.45148ZM4.03603 31.9911C3.60916 31.2811 2.68756 31.0516 1.97758 31.4785C1.2676 31.9053 1.03809 32.8269 1.46496 33.5369L2.7505 32.764L4.03603 31.9911ZM8.22548 41.8701L6.93995 42.643L6.94067 42.6442L8.22548 41.8701ZM11.842 42.9209L11.2291 41.5518L11.2278 41.5524L11.842 42.9209ZM22.7611 39.6758C23.5172 39.3373 23.8557 38.4499 23.5172 37.6938C23.1787 36.9377 22.2913 36.5992 21.5352 36.9377L22.1481 38.3068L22.7611 39.6758ZM9.94204 42.3937C11.4147 42.6786 11.4147 42.679 11.4146 42.6792C11.4146 42.6792 11.4146 42.6794 11.4146 42.6794C11.4146 42.6794 11.4146 42.6792 11.4147 42.6786C11.4149 42.6776 11.4154 42.6755 11.416 42.6723C11.4172 42.666 11.4193 42.6556 11.4222 42.641C11.4281 42.612 11.4375 42.5667 11.4504 42.5059C11.4762 42.3842 11.5163 42.2006 11.5721 41.9611C11.6837 41.4819 11.8576 40.7796 12.1039 39.9023C12.5969 38.1466 13.3779 35.6973 14.5261 32.9384C16.8321 27.3978 20.5724 20.7218 26.3326 15.8605L25.3651 14.7142L24.3977 13.5678C18.1251 18.8616 14.1538 26.0254 11.7564 31.7857C10.553 34.6773 9.73434 37.2439 9.21562 39.0914C8.95608 40.0157 8.77112 40.7618 8.6503 41.2807C8.58987 41.5402 8.54545 41.743 8.51573 41.883C8.50087 41.953 8.48968 42.0074 8.48201 42.0452C8.47817 42.0642 8.47521 42.079 8.4731 42.0896C8.47205 42.095 8.47121 42.0992 8.47059 42.1024C8.47027 42.104 8.47001 42.1054 8.46981 42.1064C8.4697 42.107 8.46959 42.1076 8.46953 42.1078C8.46943 42.1084 8.46934 42.1088 9.94204 42.3937ZM25.3651 14.7142L26.3326 15.8605C38.1451 5.89135 47.5336 3.76229 49.8329 3.45148L49.6319 1.965L49.431 0.478521C46.5724 0.86493 36.6508 3.2269 24.3977 13.5678L25.3651 14.7142ZM2.7505 32.764L1.46496 33.5369L6.93995 42.643L8.22548 41.8701L9.51102 41.0972L4.03603 31.9911L2.7505 32.764ZM8.22548 41.8701L6.94067 42.6442C8.08293 44.54 10.4692 45.1811 12.4562 44.2894L11.842 42.9209L11.2278 41.5524C10.5267 41.8671 9.81489 41.6015 9.51029 41.096L8.22548 41.8701ZM11.842 42.9209L12.4549 44.29L22.7611 39.6758L22.1481 38.3068L21.5352 36.9377L11.2291 41.5518L11.842 42.9209Z" fill="#CECFD2"/>
</svg>
