<svg width="28" height="28" viewBox="0 0 28 28" fill="none" xmlns="http://www.w3.org/2000/svg">
<path d="M11.6666 17.4999L8.07885 21.1326C7.5784 21.6393 7.32817 21.8926 7.11309 21.9105C6.92649 21.926 6.7438 21.851 6.62193 21.7088C6.48146 21.545 6.48146 21.1889 6.48146 20.4767V18.6568C6.48146 18.0179 5.95823 17.5556 5.32605 17.463C3.79601 17.2388 2.59439 16.0372 2.37027 14.5072C2.33331 14.2549 2.33331 13.9539 2.33331 13.3518V7.93325C2.33331 5.97307 2.33331 4.99298 2.71479 4.24429C3.05035 3.58572 3.58578 3.05029 4.24435 2.71473C4.99304 2.33325 5.97313 2.33325 7.93331 2.33325H16.5666C18.5268 2.33325 19.5069 2.33325 20.2556 2.71473C20.9142 3.05029 21.4496 3.58572 21.7852 4.24429C22.1666 4.99298 22.1666 5.97307 22.1666 7.93325V12.8333M22.1666 25.6666L19.6275 23.9013C19.2706 23.6531 19.0921 23.5291 18.8979 23.4411C18.7255 23.363 18.5443 23.3062 18.3581 23.2719C18.1485 23.2333 17.9311 23.2333 17.4964 23.2333H15.4C14.0932 23.2333 13.4398 23.2333 12.9407 22.9789C12.5016 22.7552 12.1447 22.3983 11.921 21.9592C11.6666 21.4601 11.6666 20.8067 11.6666 19.4999V16.5666C11.6666 15.2598 11.6666 14.6064 11.921 14.1073C12.1447 13.6682 12.5016 13.3113 12.9407 13.0876C13.4398 12.8333 14.0932 12.8333 15.4 12.8333H21.9333C23.2401 12.8333 23.8935 12.8333 24.3926 13.0876C24.8317 13.3113 25.1886 13.6682 25.4123 14.1073C25.6666 14.6064 25.6666 15.2598 25.6666 16.5666V19.7333C25.6666 20.8204 25.6666 21.364 25.489 21.7928C25.2522 22.3646 24.798 22.8188 24.2262 23.0556C23.7974 23.2333 23.2538 23.2333 22.1666 23.2333V25.6666Z" stroke="#F5B400" stroke-width="2" stroke-linecap="round" stroke-linejoin="round"/>
</svg>
