<svg width="20" height="20" viewBox="0 0 20 20" fill="none" xmlns="http://www.w3.org/2000/svg">
<g clip-path="url(#clip0_20486_203)">
<path d="M9.99999 18.3333C14.6024 18.3333 18.3333 14.6024 18.3333 9.99999C18.3333 5.39762 14.6024 1.66666 9.99999 1.66666C5.39762 1.66666 1.66666 5.39762 1.66666 9.99999C1.66666 14.6024 5.39762 18.3333 9.99999 18.3333Z" stroke="#61656C" stroke-width="1.67" stroke-linecap="round" stroke-linejoin="round"/>
<path d="M7.91666 7.4711C7.91666 7.07336 7.91666 6.87449 7.99978 6.76347C8.07221 6.66672 8.18308 6.60619 8.30364 6.59758C8.44198 6.5877 8.60926 6.69524 8.94383 6.91031L12.8777 9.4392C13.168 9.62584 13.3131 9.71916 13.3633 9.83782C13.4071 9.94149 13.4071 10.0585 13.3633 10.1622C13.3131 10.2808 13.168 10.3741 12.8777 10.5608L8.94383 13.0897C8.60926 13.3047 8.44198 13.4123 8.30364 13.4024C8.18308 13.3938 8.07221 13.3333 7.99978 13.2365C7.91666 13.1255 7.91666 12.9266 7.91666 12.5289V7.4711Z" stroke="#61656C" stroke-width="1.67" stroke-linecap="round" stroke-linejoin="round"/>
</g>
<defs>
<clipPath id="clip0_20486_203">
<rect width="20" height="20" fill="white"/>
</clipPath>
</defs>
</svg>
