<svg width="24" height="24" viewBox="0 0 24 24" fill="none" xmlns="http://www.w3.org/2000/svg">
<g clip-path="url(#clip0_20523_617)">
<path opacity="0.2" d="M0.363723 13.6945L0.421905 4.96865C0.432087 3.38902 1.53681 2.03484 3.06191 1.73302L11.4888 0.0624719C13.5135 -0.338983 15.3928 1.24574 15.3797 3.34247L15.3215 12.0697C15.3106 13.6487 14.2059 15.0021 12.6808 15.3047L4.25391 16.9752C2.22918 17.3767 0.349905 15.7919 0.363723 13.6945Z" fill="#61656C"/>
<path opacity="0.5" d="M4.49239 17.1762L4.55057 8.44892C4.56002 6.87073 5.66548 5.51728 7.19057 5.21473L15.6175 3.54492C17.6422 3.14346 19.5215 4.72746 19.5077 6.82492L19.4495 15.5522C19.4393 17.1311 18.3346 18.4846 16.8095 18.7871L8.38257 20.4576C6.35784 20.8584 4.47857 19.2744 4.49239 17.1776V17.1762Z" fill="#61656C"/>
<path opacity="0.8" d="M8.6211 20.6571L8.67928 11.9298C8.68946 10.3502 9.79419 8.99748 11.3193 8.69493L19.7462 7.02439C21.7709 6.62293 23.6502 8.20766 23.6364 10.3044L23.5782 19.0317C23.568 20.6113 22.4633 21.9647 20.9382 22.2666L12.5113 23.9371C10.4865 24.3386 8.60728 22.7538 8.62037 20.6571H8.6211Z" fill="#61656C"/>
</g>
<defs>
<clipPath id="clip0_20523_617">
<rect width="24" height="24" fill="white"/>
</clipPath>
</defs>
</svg>
