<svg width="20" height="20" viewBox="0 0 20 20" fill="none" xmlns="http://www.w3.org/2000/svg">
<g clip-path="url(#clip0_20486_714)">
<path d="M3.74999 18.3333V14.1667M3.74999 5.83332V1.66666M1.66666 3.74999H5.83332M1.66666 16.25H5.83332M10.8333 2.49999L9.38818 6.25738C9.15317 6.8684 9.03566 7.17391 8.85293 7.43089C8.69098 7.65865 8.49199 7.85765 8.26423 8.0196C8.00725 8.20233 7.70173 8.31983 7.09071 8.55484L3.33332 9.99999L7.09071 11.4451C7.70173 11.6801 8.00725 11.7977 8.26423 11.9804C8.49199 12.1423 8.69098 12.3413 8.85293 12.5691C9.03566 12.8261 9.15317 13.1316 9.38818 13.7426L10.8333 17.5L12.2785 13.7426C12.5135 13.1316 12.631 12.8261 12.8137 12.5691C12.9757 12.3413 13.1747 12.1423 13.4024 11.9804C13.6594 11.7977 13.9649 11.6801 14.5759 11.4451L18.3333 9.99999L14.5759 8.55484C13.9649 8.31983 13.6594 8.20233 13.4024 8.0196C13.1747 7.85765 12.9757 7.65865 12.8137 7.43089C12.631 7.17391 12.5135 6.8684 12.2785 6.25737L10.8333 2.49999Z" stroke="#61656C" stroke-width="1.67" stroke-linecap="round" stroke-linejoin="round"/>
</g>
<defs>
<clipPath id="clip0_20486_714">
<rect width="20" height="20" fill="white"/>
</clipPath>
</defs>
</svg>
