<svg width="20" height="20" viewBox="0 0 20 20" fill="none" xmlns="http://www.w3.org/2000/svg">
<g clip-path="url(#clip0_20486_163)">
<path d="M10 20C15.5228 20 20 15.5228 20 10C20 4.47715 15.5228 0 10 0C4.47715 0 0 4.47715 0 10C0 15.5228 4.47715 20 10 20Z" fill="#F0F0F0"/>
<path d="M10.0002 -0.000263214C5.70055 -0.000263214 2.03512 2.71349 0.622192 6.52149H19.3782C17.9653 2.71349 14.2998 -0.000263214 10.0002 -0.000263214Z" fill="#D80027"/>
<path d="M10.0002 20.0003C14.2998 20.0003 17.9653 17.2865 19.3782 13.4785H0.622192C2.03512 17.2865 5.70055 20.0003 10.0002 20.0003Z" fill="black"/>
<path d="M13.4782 8.91301H10.8695C10.8695 8.43278 10.4801 8.04344 9.99988 8.04344C9.51965 8.04344 9.13032 8.43278 9.13032 8.91301H6.52161C6.52161 9.39329 6.93993 9.78258 7.42016 9.78258H7.39118C7.39118 10.2629 7.78047 10.6522 8.26075 10.6522C8.26075 11.1324 8.65004 11.5217 9.13032 11.5217H10.8695C11.3497 11.5217 11.739 11.1324 11.739 10.6522C12.2193 10.6522 12.6086 10.2629 12.6086 9.78258H12.5796C13.0599 9.78258 13.4782 9.39329 13.4782 8.91301Z" fill="#FF9811"/>
</g>
<defs>
<clipPath id="clip0_20486_163">
<rect width="20" height="20" fill="white"/>
</clipPath>
</defs>
</svg>
